<svg id="Capa_1" data-name="Capa 1" xmlns="http://www.w3.org/2000/svg" viewBox="0 0 322.72 448.51"><defs><style>.cls-1,.cls-7{fill:#5b3631;}.cls-2{opacity:0.1;}.cls-3{fill:#2196f3;}.cls-4{fill:#90caf9;}.cls-5{fill:#42a5f5;}.cls-6{fill:#0d47a1;}.cls-7{font-size:100px;font-family:FredokaOne-Regular, Fredoka One;}</style></defs><title>logo1</title><path class="cls-1" d="M800.78,457.85q.18-2.12.31-4.25s0-.1,0-.15,0-.36.05-.54q.26-4.57.26-9.21a161.31,161.31,0,1,0-58,123.84c.1-.08.18-.17.28-.24a161,161,0,0,0,57.05-109.44Z" transform="translate(-478.79 -282.39)"/><polygon class="cls-2" points="75.96 192.17 205.48 191.79 205.84 315.07 140.9 253.62 75.96 192.17"/><path class="cls-3" d="M624.83,514.84c-22.9-10.68-44.3-24.37-66.6-36.26a6.38,6.38,0,0,1-3.64-6.31q.1-58.22,0-116.54c6-.62,9.33,5.51,14.74,4.59,18.56,7.08,34.77,19,52.51,27.82,3.31,1.64,5.2,4.76,5.91,8.6,1.44,36.05.5,72.1.51,108.15C628.3,508.56,627.73,512.19,624.83,514.84Z" transform="translate(-478.79 -282.39)"/><path class="cls-2" d="M788.33,508.11c1.65-2.25,2.45-5.79,3.37-8.43s2.31-5.32,3-8.12a15.13,15.13,0,0,1,.26-2.35,8.19,8.19,0,0,1,.33-1.13c.16-.44.32-1.61.16,0a6.73,6.73,0,0,1,.37-1.62,5.62,5.62,0,0,1,.27-1.07,6.3,6.3,0,0,0,.23-1.06,2.64,2.64,0,0,1,.19-.65s0-.05,0-.08a3.68,3.68,0,0,1,.32-1.35q.07-.32.16-.63a3.94,3.94,0,0,1,.15-.75,3.47,3.47,0,0,1,.22-.74,5.16,5.16,0,0,1,.15-.91l.14-.33c.16-.92.38-1.84.59-2.76a5.7,5.7,0,0,1,.34-1.64,7.59,7.59,0,0,1,.22-1.42c0-.42.09-.84.18-1.27l0-.08H684.86V597.22h5a4.73,4.73,0,0,1,1-.32,4.67,4.67,0,0,1,1-.36,4.78,4.78,0,0,1,1.14-.34,4.61,4.61,0,0,1,1.34-.5,4.7,4.7,0,0,1,1.2-.42,4.58,4.58,0,0,1,1.18-.46,4.68,4.68,0,0,1,.83-.3,4.63,4.63,0,0,1,1.33-.49,35.23,35.23,0,0,0,2.1-.85l.4-.17a4.47,4.47,0,0,1,1.12-.49,4.76,4.76,0,0,1,1.58-.5,4.64,4.64,0,0,1,2.08-.91l.18-.1c.37-.23.73-.46,1.11-.66a26.59,26.59,0,0,1,2.51-1l.12,0,.2-.09.85-.37a7.36,7.36,0,0,1,.86-.31l.2-.12c3.58-1.95,6.92-4.27,10.64-5.93a5.46,5.46,0,0,1,1-.7c2.59-1.45,5-3.3,7.62-4.75a6.4,6.4,0,0,1,2-1.2c-1,.4.65-.6.9-.79s.77-.62,1.15-.93c.95-.79,1.91-1.54,2.91-2.26l1.3-.94a4.36,4.36,0,0,1,1.82-1.47A15.8,15.8,0,0,0,743,568a4.08,4.08,0,0,1,1.54-1.09,39.7,39.7,0,0,0,3.26-2.77,125.47,125.47,0,0,0,2.36-2.26,180.44,180.44,0,0,0,3.1-2.85,3.13,3.13,0,0,1,.28-.28A14.29,14.29,0,0,0,755,557.2c.08-.11.16-.22.24-.34a5.32,5.32,0,0,1,1.74-1.69,71.17,71.17,0,0,0,5.88-6,5,5,0,0,1,2-2.71c2-1.37,3.44-4.73,4.89-6.71s2.9-3.92,4.34-5.89c.93-1.28,1.9-2.55,2.87-3.82a5.65,5.65,0,0,1,.35-.91c2.59-5.28,6.1-10.11,8.73-15.4L787.4,511A4.34,4.34,0,0,1,788.33,508.11Z" transform="translate(-478.79 -282.39)"/><path class="cls-2" d="M799.17,471.19l0-.11a3.69,3.69,0,0,1,.13-.8v-.11c0-.19,0-.39,0-.58a6,6,0,0,1,.28-1.64c.14-1.23.27-2.46.45-3.69a11.85,11.85,0,0,1,.39-1.68,5.72,5.72,0,0,1,0-1.22c0-.16.05-.31.08-.46a10,10,0,0,1,.15-1.29,11.67,11.67,0,0,1,.21-2.74s0-.08,0-.12a8.15,8.15,0,0,1,.18-2.43,3.78,3.78,0,0,1-.07-.88,11.7,11.7,0,0,1,.18-1.43c0-.2,0-.39,0-.59a6.24,6.24,0,0,1,.05-.69,6.14,6.14,0,0,1,.07-1.82,17.19,17.19,0,0,1,.06-2.94c0-.12,0-.23,0-.36a3.89,3.89,0,0,1,.09-1c0-.15,0-.29,0-.44a2.41,2.41,0,0,1,0-.32c0-.48,0-1,0-1.43a3.94,3.94,0,0,1-.08-.92c0-.45,0-.91,0-1.36a5.87,5.87,0,0,1,0-1.41s0,0,0-.07a4.48,4.48,0,0,1-.11-1c0-.66.06-1.34.06-2a3.72,3.72,0,0,1-.13-1.07v0a5,5,0,0,1-.12-1.24l-19.77-19.77L723.16,355.4V471.73H799A3.43,3.43,0,0,1,799.17,471.19Z" transform="translate(-478.79 -282.39)"/><path class="cls-4" d="M710.82,360.31l12.35-4.91c1.94,4.32.93,8.62.95,12.75.1,33.08-.1,66.17.19,99.25.06,6.72-1.57,10.74-7.66,13.92-20.64,10.78-41,22.23-61.39,33.43a10.68,10.68,0,0,1-3-8.06c-.15-36.91-1.19-73.83.5-110.71a12.45,12.45,0,0,1,5.43-7.81c8.33-5.87,12.89-3.6,13.6,6.88.29,4.3-.15,8.64.25,12.93.58,6.24,3,7.26,8,3.6a10.91,10.91,0,0,0,4.66-8.27c.24-3,.22-6,.23-8.95C685,371.19,689.11,365.75,710.82,360.31Z" transform="translate(-478.79 -282.39)"/><path class="cls-5" d="M655.16,393.31l.14,121.44-30.42.09q0-60.66.08-121.32C635,388.11,645.07,388.42,655.16,393.31Z" transform="translate(-478.79 -282.39)"/><path class="cls-6" d="M655.11,393.31l-30.19.21q-23.75-13.4-47.49-26.83c-3-1.69-6.75-2.34-8-6.37,8.13-7.17,16-6.36,24.63-.33,7.6,5.29,16.23,8.91,24.12,13.79,14.36,8.88,28.43,9,42.85.14,7.62-4.7,16-8.08,23.33-13.23,9.11-6.43,17.55-7.88,26.5-.39-4.05,4.94-9.88,7.16-15.22,9.61-7,3.2-9.11,7.9-8.45,15.43.58,6.54-.05,13.19.18,19.77.15,4.12-1.06,7.13-4.76,8.68-3.95,1.66-7.73,6.95-11.65,4.54-3.39-2.08-1-7.91-1.42-12.07-.16-1.63.1-3.31,0-4.94-.44-4.83,2.23-12-1.3-13.93C664.11,385.2,659.25,390.48,655.11,393.31Z" transform="translate(-478.79 -282.39)"/><text class="cls-7" transform="translate(69.96 424.91)">Hibi</text></svg>